#!OML:ASF E:/inclinewalkrobotboard/Project1/Captureday1/Session1/subject1.ASF
:FULLY-SPECIFIED
:DEGREES
201
root 0 0 0 1.8839115750851287 -9.264087825291472 1.4462538818896318
lowerback 1.105774309132845 -1.6474859499753989 -3.1572769610157683
upperback -0.5946108584983687 -2.1196147038294866 2.4090123871379223
thorax -0.9853510381509871 -1.036736168366912 4.21654547845066
lowerneck -31.317813076656392 -2.3170077740738124 -7.251460139651308
upperneck 5.97429974556308 -1.0324217529597381 5.230376284069575
head 6.550369076600841 -0.04917844472382586 2.71429056106357
rclavicle -4.074600781498469E-15 -3.340823395156161E-15
rhumerus -32.919672228046814 -5.786080556988195 -80.06352326268701
rradius 29.851601582390906
rwrist 19.19267703957044
rhand -17.364475663692218 9.478478937980478
rfingers 7.125019999999955
rthumb 8.877627862235025 -20.379733452345235
lclavicle -7.282424330661417E-16 -1.8741666058317285E-15
lhumerus -10.017867249840338 8.986167601938046 89.11262240929975
lradius 60.44119293048118
lwrist -5.183828111878223
lhand -33.62788733296174 17.338937568512215
lfingers 7.125020000000009
lthumb -6.810483353423323 46.976237602292734
rfemur -10.66790089357284 7.5207542943813985 34.6105925437933
rtibia 26.106971382649117
rfoot -7.68260532360048 -6.50917081820946
rtoes 14.320104232364644
lfemur -10.445616592171678 0.7756394470320962 -15.644903357552643
ltibia 56.21147228711172
lfoot 6.705253199668501 -12.094195479177708
ltoes -7.72360546505167
202
root 0 0 0 1.6558187041355055 -9.033980020228888 1.2260271120995214
lowerback 1.2837766105916686 -1.4892067673528095 -3.0449062618864913
upperback -0.7882156640821409 -1.8866653244030942 2.334511314453032
thorax -1.2907175786323917 -0.9200938791067211 4.087177943364228
lowerneck -29.3277865665522 -2.135757947627005 -7.188022703653991
upperneck 8.451175968544755 -0.8927142745448574 4.9099164049925825
head 7.154751906336194 -0.10606131024295853 2.6529988826074495
rclavicle -4.623182047964798E-15 -1.2658965624102802E-15
rhumerus -32.810332701616325 -5.533250388635189 -80.33209872553017
rradius 30.06893640224392
rwrist 19.30214091326519
rhand -17.3990947836751 9.29894656390236
rfingers 7.12501999999996
rthumb 8.8482717643632 -20.50413236573508
lclavicle -1.6898532923456708E-15 -1.1443688507899064E-15
lhumerus -9.465387973750296 9.43721030361553 88.92750866873453
lradius 60.51075470542658
lwrist -5.4811374065955185
lhand -33.838106657388415 17.190784674911445
lfingers 7.125020000000011
lthumb -7.015207762188586 46.815269847829015
rfemur -0.9460174598229312 8.345708057164748 37.159594904144384
rtibia 25.495706540987104
rfoot -16.287892367988448 -6.356580431302294
rtoes 11.996662475877951
lfemur -19.658715674694914 2.866336010114716 -13.377094542557359
ltibia 59.54742182349146
lfoot -0.028678927716702773 -7.319108976865516
ltoes -8.215931243445828
203
root 0 0 0 1.5285062787404495 -8.882430627454802 1.0920718229138613
lowerback 1.3638048403697636 -1.3834136817523746 -3.001065208596206
upperback -0.9241065002110179 -1.7326956108712868 2.2892495290092727
thorax -1.4800930590933778 -0.8429431719371595 4.0218125357485
lowerneck -27.998734197266124 -2.0164536178999306 -7.189986849930215
upperneck 10.01070402723845 -0.8122687344913292 4.768983518917214
head 7.524053270272756 -0.1397065426620367 2.6423756386353046
rclavicle -4.361976497428217E-15 9.147941016834643E-17
rhumerus -32.544843089908746 -4.879233070369217 -80.5296781895275
rradius 30.266620249490423
rwrist 19.074418281716788
rhand -17.564771695533256 9.35997056141887
rfingers 7.12501999999996
rthumb 8.690529884269536 -20.429279816789624
lclavicle -2.0024902168166184E-15 -5.569826034396368E-16
lhumerus -9.318036835159507 9.302963463535814 88.84514463675899
lradius 60.69265646783829
lwrist -5.510914373077592
lhand -33.890311532181656 17.219563314978053
lfingers 7.125020000000011
lthumb -7.06871184228796 46.84247918844737
rfemur 3.699190954609815 8.962819224239944 38.23488560535719
rtibia 21.779930128216417
rfoot -20.12920527448563 -6.903218692549534
rtoes 8.362769530350633
lfemur -21.696424243888007 2.949254299836474 -12.968660784988039
ltibia 58.40235717157593
lfoot -1.7022578255049234 -5.944502576626208
ltoes -7.888331439006781
204
root 0 0 0 1.4499036042644993 -8.789432634380015 1.006801837490754
lowerback 1.4088730356120789 -1.3169537822582218 -2.978217970115815
upperback -1.009246870595154 -1.636162496945988 2.261148418529522
thorax -1.5983503738943017 -0.7947814757575038 3.9825205753293416
lowerneck -27.160852234071797 -1.940856585957595 -7.197130802628401
upperneck 10.97674011397512 -0.7598039645630238 4.68386805247726
head 7.750870020098944 -0.15927687412394734 2.6375838926971147
rclavicle -3.853973741464259E-15 2.8398311563853484E-16
rhumerus -32.14929003298052 -3.9225205733359783 -80.70085880209919
rradius 30.46884193384979
rwrist 18.595857802767142
rhand -17.829789809451487 9.587891731970451
rfingers 7.125019999999957
rthumb 8.436096898089295 -20.20738843010865
lclavicle -1.7342441733951711E-15 -4.1493921532072495E-16
lhumerus -9.641111249585263 9.00177219307929 89.01110216926119
lradius 60.67844547531489
lwrist -5.387669197112229
lhand -33.820979218785645 17.288684542587305
lfingers 7.12502000000001
lthumb -7.004087334544751 46.916130818904875
rfemur 5.511191491863775 9.09929834089171 38.45326273622913
rtibia 20.106917683194855
rfoot -21.37577732361449 -7.24880945421352
rtoes 5.701253527636413
lfemur -23.738711204261417 2.440938043066993 -12.546630308463659
ltibia 54.793967011629526
lfoot -2.6011758958385522 -4.372727840081138
ltoes -6.8599592530048366
